<svg width="35" height="47" viewBox="0 0 35 47" fill="none" xmlns="http://www.w3.org/2000/svg">
<path d="M16.265 28.5294C11.0239 27.6301 4.82657 26.8848 0.666672 26.4692C6.84462 27.3933 12.2964 27.2903 16.755 26.5038M16.265 28.5294C21.7247 29.4662 26.1467 30.5701 26.1467 31.6427C23.2067 30.2515 17.1143 27.681 16.265 28.5294ZM16.265 28.5294C15.6117 29.7176 16.3195 40.8449 16.755 46.26M16.265 28.5294C16.265 27.7836 16.363 26.3345 16.755 26.5038M16.755 26.5038C26.5596 24.7744 31.5618 19.7399 28.9233 15.0546C28.5118 14.3237 28.1416 13.6398 27.8091 13.0016M16.755 26.5038C17.49 24.0056 29.74 20.0639 27.8091 13.0016M27.8091 13.0016C25.6607 8.87795 25.085 6.66144 25.085 6.02142C25.869 2.80234 27.4806 1.88807 28.1883 1.83333C28.3245 1.83333 28.7927 1.83333 29.5767 1.83333C30.5567 1.83333 31.2917 3.22936 31.5367 3.63996C31.7327 3.96844 32.8161 5.91193 33.3333 6.84262C33.2517 7.06161 33.3333 6.84262 33.3333 7.74594C33.3333 8.07441 32.6528 9.30621 32.19 9.88104L31.945 8.07441C31.6922 7.22584 30.511 5.41374 27.8091 4.95387C24.4317 4.37903 28.5731 17.9288 27.8091 13.0016ZM24.4317 20.5566C24.8672 20.2829 25.722 19.1934 25.6567 17.0254C25.5913 14.8575 23.1795 13.2206 21.9817 12.6731C20.6478 12.153 17.0817 11.5891 13.4883 13.4943C8.99667 15.8758 10.7933 16.5327 5.73001 18.6678C1.67934 20.3759 0.938894 20.0912 1.07501 19.7354C6.16556 22.7464 17.9637 27.1261 24.4317 20.5566Z" stroke="#FF9343" stroke-width="2"/>
</svg>
